<svg width="1406" height="374" viewBox="0 0 1406 374" fill="none" xmlns="http://www.w3.org/2000/svg">
<path d="M344.706 358.73H298.818V179.574H349.92C369.777 179.574 383.861 180.553 392.191 182.511C400.342 184.629 407.154 187.985 412.628 192.54C419.16 198.013 424.175 204.786 427.671 212.856C431.187 221.087 432.925 230.276 432.925 240.385C432.925 251.153 431.167 260.542 427.671 268.533C424.574 276.604 419.56 283.296 412.628 288.61C407.654 292.525 401.66 295.342 394.648 297.06C388.356 298.778 377.428 299.637 361.846 299.637H344.706V358.75V358.73ZM344.706 260.222H354.015C365.602 260.222 373.792 258.544 378.607 255.208C383.261 252.111 385.579 246.678 385.579 238.927C385.579 231.175 383.321 226.181 378.787 222.965C374.252 219.749 366.161 218.13 354.494 218.13H344.706V260.222Z" fill="white"/>
<path d="M454.959 358.73V235.131H496.072V264.258C500.388 253.57 506.141 245.619 513.333 240.405C520.764 235.111 529.694 232.454 540.142 232.454C542.499 232.454 544.257 232.534 545.396 232.694C546.295 232.774 547.114 232.834 547.853 232.874C548.592 232.913 549.531 233.013 550.67 233.173L546.515 272.828C543.498 271.849 540.881 271.15 538.684 270.75C535.427 270.431 533.01 270.251 531.472 270.251C520.864 270.251 512.673 273.507 506.88 280.04C501.167 286.492 498.31 295.662 498.31 307.568V358.73H454.999H454.959Z" fill="white"/>
<path d="M694.805 305.63H600.832C601.072 315.259 603.489 322.591 608.044 327.665C612.779 332.879 619.631 335.496 628.601 335.496C635.133 335.496 640.707 334.238 645.362 331.701C650.096 329.004 653.512 325.328 655.65 320.693L688.452 333.918C684.617 343.307 677.685 350.559 667.656 355.693C657.707 360.907 645.501 363.524 631.058 363.524C609.522 363.524 592.222 357.491 579.177 345.405C566.212 333.658 559.719 317.956 559.719 298.299C559.719 278.641 566.212 263.099 579.177 250.214C592.142 237.568 608.624 231.235 628.621 231.235C648.618 231.235 665.119 237.648 676.965 250.453C682.998 257.066 687.493 264.757 690.43 273.527C693.367 282.297 694.845 292.306 694.845 303.573V305.65L694.805 305.63ZM651.854 281.018C651.115 274.166 648.458 268.573 643.903 264.258C639.328 259.943 633.755 257.765 627.142 257.765C620.21 257.765 614.577 259.683 610.262 263.518C605.767 267.854 602.95 273.667 601.811 281.018H651.854Z" fill="white"/>
<path d="M708.27 348.461L717.319 315.179C723.692 320.813 730.704 325.048 738.375 327.905C745.966 330.921 753.638 332.42 761.389 332.42C766.942 332.42 771.098 331.481 773.874 329.603C776.731 327.885 778.15 325.408 778.15 322.151C778.15 316.698 772.396 312.622 760.889 309.925C756.894 309.026 753.877 308.247 751.84 307.608C738.535 303.693 729.126 298.918 723.572 293.284C717.539 287.491 714.522 279.98 714.522 270.75C714.522 258.844 719.057 249.235 728.107 241.983C736.837 234.811 749.023 231.216 764.705 231.216C772.296 231.216 780.367 232.114 788.937 233.912C796.109 235.391 804.479 238.247 814.028 242.523L804.979 272.568C799.106 268.573 793.192 265.596 787.239 263.638C781.606 261.601 775.692 260.582 769.499 260.582C764.445 260.582 760.65 261.361 758.112 262.899C755.655 264.358 754.437 266.595 754.437 269.612C754.437 273.847 760.19 277.503 771.697 280.599C775.453 281.738 777.37 282.317 777.45 282.317C792.453 286.552 802.981 291.567 809.014 297.36C814.888 303.473 817.824 311.424 817.824 321.193C817.824 333.818 812.97 344.006 803.261 351.758C793.312 359.589 780.447 363.484 764.705 363.484C753.777 363.484 743.709 362.246 734.539 359.748C725.37 357.251 716.62 353.496 708.289 348.421L708.27 348.461Z" fill="white"/>
<path d="M969.171 305.63H875.199C875.439 315.259 877.856 322.591 882.411 327.665C887.145 332.879 893.997 335.496 902.967 335.496C909.5 335.496 915.073 334.238 919.728 331.701C924.463 329.004 927.879 325.328 930.016 320.693L962.819 333.918C958.983 343.307 952.051 350.559 942.022 355.693C932.074 360.907 919.868 363.524 905.424 363.524C883.889 363.524 866.589 357.491 853.544 345.405C840.579 333.658 834.086 317.956 834.086 298.299C834.086 278.641 840.579 263.099 853.544 250.214C866.509 237.568 882.99 231.235 902.987 231.235C922.984 231.235 939.485 237.648 951.332 250.453C957.365 257.066 961.86 264.757 964.796 273.527C967.733 282.297 969.211 292.306 969.211 303.573V305.65L969.171 305.63ZM926.221 281.018C925.481 274.166 922.824 268.573 918.27 264.258C913.695 259.943 908.121 257.765 901.509 257.765C894.577 257.765 888.943 259.683 884.628 263.518C880.133 267.854 877.316 273.667 876.178 281.018H926.221Z" fill="white"/>
<path d="M994.123 358.73V235.131H1034.02V260.222C1039.63 250.434 1046.32 243.082 1054.07 238.188C1061.57 233.533 1070.65 231.216 1081.34 231.216C1089.41 231.216 1096.59 232.434 1102.86 234.891C1109.07 237.668 1114.11 241.424 1117.96 246.158C1121.48 250.893 1123.81 255.907 1124.95 261.201C1126.35 267.973 1127.03 276.903 1127.03 288.011V358.75H1083.22V292.545C1083.22 282.517 1081.64 275.325 1078.47 271.01C1075.29 266.515 1070.12 264.278 1062.96 264.278C1054.01 264.278 1047.42 267.634 1043.19 274.306C1039.03 280.999 1036.95 291.846 1036.95 306.849V358.73H994.123Z" fill="white"/>
<path d="M1405.79 235.131V358.73H1365.66V338.653C1359.86 347.223 1353.41 353.496 1346.28 357.491C1339.15 361.486 1330.82 363.484 1321.29 363.484C1304.75 363.484 1291.58 357.451 1281.81 345.365C1277 339.412 1273.34 332.4 1270.81 324.309C1268.29 316.238 1267.01 307.129 1267.01 297.02C1267.01 276.783 1272.18 260.762 1282.53 248.935C1292.88 237.109 1306.72 231.196 1324.09 231.196C1333.37 231.196 1341.37 233.193 1348.04 237.209C1354.79 241.064 1360.58 247.157 1365.4 255.508V235.111H1405.77L1405.79 235.131ZM1367.38 296.88C1367.38 287.112 1364.82 279.54 1359.68 274.166C1354.47 268.473 1347.48 265.616 1338.69 265.616C1329.9 265.616 1322.97 268.393 1317.93 273.927C1312.72 279.62 1310.12 287.291 1310.12 296.88C1310.12 306.469 1312.72 314.181 1317.93 319.714C1322.91 325.168 1329.82 327.905 1338.69 327.905C1347.56 327.905 1354.47 325.168 1359.62 319.714C1364.78 314.261 1367.38 306.649 1367.38 296.88Z" fill="white"/>
<path d="M1201.31 273.567C1196.17 279.201 1193.59 286.952 1193.59 296.82C1193.59 306.689 1196.25 313.781 1201.55 319.335C1206.7 325.048 1213.83 327.905 1222.96 327.905C1227.3 327.905 1231.45 327.006 1235.45 325.208C1239.68 323.17 1243.36 320.473 1246.45 317.117V354.934C1242.66 356.952 1238.84 358.67 1234.99 360.088V373.872H1181.75V355.513C1176.89 352.776 1172.48 349.32 1168.5 345.145C1164.51 341.07 1161.23 336.575 1158.65 331.681C1156.08 326.786 1154.14 321.492 1152.78 315.779C1151.44 310.065 1150.76 303.832 1150.76 297.06C1150.76 277.562 1156.74 261.721 1168.68 249.515C1180.65 237.329 1196.13 231.216 1215.13 231.216C1221.08 231.216 1226.76 231.875 1232.15 233.173C1237.36 234.492 1242.14 236.41 1246.45 238.927V275.765C1242.22 272.009 1238.14 269.272 1234.23 267.574C1230.71 265.856 1226.6 264.997 1221.86 264.997C1213.13 264.997 1206.28 267.854 1201.31 273.567Z" fill="white"/>
<path fill-rule="evenodd" clip-rule="evenodd" d="M20.097 358.75H112.331C143.056 358.75 170.964 346.204 191.201 325.967C211.418 305.75 223.984 277.822 223.984 247.097C223.984 226.601 218.39 207.343 208.661 190.802C199.692 201.21 189.004 210.1 177.057 217.012L176.978 216.852C181.333 226.061 183.75 236.31 183.75 247.097C183.75 266.715 175.699 284.574 162.754 297.52C149.809 310.465 131.949 318.516 112.331 318.516H40.214V40.2539H112.351C112.971 40.2539 113.57 40.254 114.169 40.2739H114.189C114.789 40.2739 115.368 40.3139 115.967 40.3339H115.987H116.027C116.587 40.3738 117.146 40.3938 117.725 40.4537H117.785H117.885C118.365 40.4937 118.864 40.5536 119.343 40.5936L119.863 40.6535C120.262 40.6935 120.642 40.7334 121.042 40.7933L121.721 40.8732C122.06 40.9132 122.4 40.9731 122.76 41.0131L123.599 41.1529L124.418 41.2927C124.757 41.3527 125.077 41.4126 125.417 41.4725L126.136 41.6124C126.515 41.6923 126.895 41.7722 127.274 41.8521L127.714 41.952C128.193 42.0519 128.693 42.1717 129.172 42.2916L129.312 42.3316C155.023 48.6643 175.359 69.0011 181.692 94.7117L181.732 94.8315C181.852 95.311 181.972 95.8104 182.072 96.2898L182.172 96.7293C182.252 97.1089 182.331 97.4885 182.411 97.868L182.551 98.6272C182.611 98.9468 182.671 99.2465 182.711 99.5661L182.851 100.425L182.971 101.224C183.031 101.584 183.071 101.943 183.131 102.303L183.21 102.942C183.27 103.342 183.31 103.741 183.35 104.161L183.41 104.66C183.45 105.16 183.51 105.639 183.55 106.139V106.218V106.278C183.59 106.838 183.63 107.417 183.67 107.976V108.016C183.71 108.636 183.73 109.235 183.73 109.834C183.73 110.454 183.75 111.073 183.75 111.672C183.75 112.272 183.75 112.851 183.73 113.45V113.57C183.73 114.149 183.69 114.729 183.67 115.308V115.388C183.63 115.927 183.61 116.467 183.57 117.026V117.226C183.51 117.745 183.47 118.265 183.41 118.784L183.37 119.124C183.31 119.603 183.27 120.063 183.21 120.542L183.15 120.962C183.091 121.381 183.031 121.801 182.971 122.22L182.871 122.819C182.811 123.199 182.751 123.579 182.691 123.938L182.571 124.617L182.391 125.596L182.212 126.495L182.072 127.135C175.02 158.738 146.872 182.611 113.33 183.071H113.29C112.971 183.071 112.651 183.071 112.351 183.071H70.4394V288.27H110.673V223.285H112.351C133.847 223.285 153.964 217.132 171.044 206.524L171.144 206.684C182.691 199.512 192.859 190.282 201.11 179.535L200.99 179.355C215.414 160.556 224.004 137.063 224.004 111.652C224.004 80.9274 211.458 53.0194 191.221 32.7825C171.004 12.5656 143.076 0 112.351 0H0V358.71H20.117L20.097 358.75Z" fill="white"/>
<path fill-rule="evenodd" clip-rule="evenodd" d="M40.3337 358.75H112.551C143.216 358.75 171.084 346.224 191.261 326.027C211.438 305.83 223.984 277.982 223.984 247.317C223.984 226.86 218.41 207.642 208.681 191.121C199.731 201.509 189.064 210.379 177.137 217.271L177.057 217.112C181.392 226.301 183.83 236.529 183.83 247.317C183.83 266.895 175.799 284.714 162.874 297.64C149.948 310.565 132.129 318.596 112.551 318.596H40.5535L40.3337 358.75Z" fill="white"/>
</svg>
